<?xml version="1.0" encoding="utf-8"?>
<!-- Generator: Adobe Illustrator 22.1.0, SVG Export Plug-In . SVG Version: 6.00 Build 0)  -->
<svg version="1.1" id="レイヤー_1" xmlns="http://www.w3.org/2000/svg" xmlns:xlink="http://www.w3.org/1999/xlink" x="0px"
	 y="0px" viewBox="0 0 300 34.3" style="enable-background:new 0 0 300 34.3;" xml:space="preserve">
<style type="text/css">
	.st0{fill:#231815;}
	.st1{fill:#00A23E;}
</style>
<g>
	<path class="st0" d="M66.3,6.5V9H44.7V6.5H66.3z M64.8,16.1v2.5H47v-2.5H64.8z M69.1,26.6v2.5H42.7v-2.5H69.1z"/>
	<path class="st0" d="M87.1,4h3v9.8h11.8v2.6h-8.7v10.5c0,0.2,0.1,0.4,0.2,0.6c0.1,0.3,0.4,0.4,0.9,0.5c0.6,0.1,1.6,0.1,3,0.1
		c1.3,0,2.1-0.1,2.3-0.4c0.2-0.2,0.3-1.1,0.3-2.5c0.9,0.6,1.9,1,2.9,1.2c-0.3,1.9-0.6,3.1-1,3.4c-0.2,0.3-0.6,0.6-1.3,0.7
		c-0.3,0.1-1.4,0.1-3.2,0.1c-3.2,0-5-0.1-5.6-0.2c-0.4-0.1-0.7-0.4-0.9-0.7c-0.3-0.4-0.4-0.9-0.4-1.5V16.4h-3.7
		c-0.1,2.8-0.4,5-0.9,6.7c-0.5,1.5-1.2,2.9-2.3,4.1c-1.2,1.4-3.6,2.8-7.1,4.1c-0.3-0.8-0.7-1.7-1.4-2.5c3-1.1,5.1-2.3,6.2-3.5
		c0.9-1,1.6-2.2,2-3.5c0.5-1.4,0.7-3.2,0.8-5.4h-8.3v-2.6h11.6V4z M80,6.2c1.7,1.8,3.1,3.5,4.2,5.1l-2,1.8c-1.1-1.7-2.4-3.4-4.1-5.3
		L80,6.2z M96.7,5.7l2.5,2l-5,5.3l-2-1.4L96.7,5.7z"/>
	<path class="st0" d="M131.3,23.1c-1.2,1-2.4,1.9-3.7,2.8c-1.2-0.9-2.1-1.8-2.8-2.8H131.3z M108.5,8.3l2.4,1.1
		c0.3-0.4,0.7-0.9,1-1.3h3.3v1.7h-6.9v1.9h6.9v1.7h-5.4v5.8h2.4v-3.9h3V20h2.5v-4.8h3.1v1.7c0,0.2-0.6,0.2-1.8,0.2h-0.1
		c0.3,0.7,0.5,1.4,0.6,2.1c1.9-0.2,3-0.5,3.3-0.9c0.3-0.4,0.5-1.1,0.5-2v-3.1h-5.6v-1.7h7V9.8h-7V8.1h5.3V6.2h-5.3V3.9h-2.5v2.3
		h-2.1c0.2-0.4,0.5-0.9,0.7-1.3L111.4,4C110.6,5.4,109.7,6.9,108.5,8.3z M125.9,15.6h2.5v-10h-2.5V15.6z M131.3,16.8
		c0,0.2-0.2,0.4-0.7,0.4h-1.7c0.4,0.9,0.6,1.8,0.7,2.5c2.2-0.2,3.5-0.5,3.9-1c0.3-0.4,0.5-0.9,0.6-1.5V4h-2.8V16.8z M120.3,21H108
		v2.1h10.4c-0.6,0.3-1.3,0.6-2.1,0.9c-2.3,0.9-5.1,1.7-8.6,2.4c0.8,0.6,1.5,1.3,2,2.1c1.9-0.5,3.7-1,5.4-1.7v1.8l-2.9,0.3l0.8,2.4
		l12.2-1.6v-2.3l-7.5,0.8V26c1.7-0.7,3.2-1.5,4.6-2.3c0.8,1.2,1.8,2.4,3.1,3.5c2.2,2,5.2,3.5,9,4.6c0.3-0.7,0.7-1.5,1.3-2.4
		c-2.4-0.6-4.4-1.3-6.1-2.2c1.2-0.7,2.4-1.4,3.6-2.2l-1.4-1.8h3.6V21h-12.2v-1.6h-2.9V21z"/>
	<path class="st0" d="M147.6,3.5l2.9,1.3c-1,2.3-1.9,4.4-2.9,6.1v20.4h-2.9V15.8c-0.9,1.3-1.9,2.6-3,3.9c-0.4-0.9-1-1.7-1.7-2.3
		c1.5-1.9,2.8-3.8,3.8-5.7C145.1,9.5,146.3,6.8,147.6,3.5z M155.2,3.5l2.8,1.2c-0.7,1.7-1.3,3.2-2,4.5h12.2v2.4h-9.1v3.8h7.4V18
		h-7.4v3.7h7.9v2.5h-7.9v7.2h-2.9V11.7h-1.5c-0.2,0.5-0.5,1-0.8,1.4c-1.1,2-2.5,4-4.1,5.9c-0.4-0.9-1-1.7-1.6-2.3
		c1.4-1.8,2.5-3.6,3.5-5.4C152.9,9.2,154.1,6.6,155.2,3.5z"/>
	<path class="st0" d="M183.4,9.8v2.4h-2.8v2.8l3.3,3.5l-1.4,2.5l-1.9-2.2v12.6H178V18.8c-1.2,2.5-2.5,4.7-3.8,6.6l-0.9-3.5
		c1.7-2.5,3.3-5.6,4.8-9.4v-0.4h-4.2V9.8h4.2V3.9h2.6v5.9H183.4z M186.3,6.1l2.6,0.6c-0.3,1-0.5,1.9-0.8,2.8h2.8V4h2.8v5.4h5.5v2.5
		h-5.5v4.6h7V19h-6c0.9,1.3,1.9,2.4,2.8,3.4c1.3,1.4,2.7,2.7,4.1,3.7c-0.8,0.7-1.4,1.5-1.8,2.4c-1.4-1.1-2.8-2.4-4.1-4
		c-0.7-0.8-1.4-1.7-2.1-2.7v9.3h-2.8v-9.3c-1.1,1.5-2.2,2.7-3.1,3.6c-1.2,1.1-2.7,2.3-4.4,3.4c-0.4-0.9-1-1.7-1.7-2.4
		c1.7-1,3.1-2,4.2-3c1.2-1.1,2.6-2.6,4.1-4.5h-6v-2.4h6.9v-4.6h-3.8c-0.4,1.1-0.9,2.1-1.4,3c-0.5-0.3-1.4-0.7-2.5-1
		C184.5,11.6,185.5,9,186.3,6.1z"/>
	<path class="st0" d="M233.6,9.3v2.6h-8.4c0.1,3.9,0.4,6.7,0.7,8.3c0.6,2.9,1.7,5.3,3.3,7.2c0.4,0.5,0.8,0.7,1,0.7
		c0.4,0,0.7-0.4,0.9-1.3l0.4-1.5c0.9,0.4,1.7,0.8,2.6,1.1c-0.7,2.2-1.3,3.6-1.8,4.1c-0.3,0.5-0.8,0.8-1.5,0.8c-0.7,0-1.5-0.3-2.5-1
		c-1.2-1-2.3-2.4-3.2-4.1c-0.9-1.9-1.6-4-2.1-6.5c-0.3-1.7-0.5-4.3-0.6-7.9h-15.2V9.3h15.1c0-1.6-0.1-3.4-0.1-5.4h2.8
		c0,2,0,3.8,0,5.4H233.6z M221,16.3v2.5h-4.6v7.3l6-0.9v2.5l-14.1,2.5l-1.1-2.9l6.3-0.9v-7.7h-5v-2.5H221z M227.9,4.1
		c1.3,0.9,2.5,1.9,3.7,3L229.7,9c-1.1-1.1-2.3-2-3.6-2.8L227.9,4.1z"/>
	<path class="st0" d="M248,12c1.5-1.2,3-2.8,4.6-4.6c2.1,2.1,4.1,3.9,5.9,5.3c0.4,0.3,0.8,0.6,1.3,0.9H246
		C246.8,13.1,247.4,12.5,248,12z M245.8,10.3c-1.5,1.4-3.8,3-6.8,4.7l1.3,2.3c1.9-1.1,3.5-2.1,4.9-3v2H260v-2.3
		c1.6,1.1,3.4,2.2,5.5,3.3c0.5-1,1.2-1.8,1.9-2.5c-2.8-1.3-5.2-2.8-7.2-4.2c-1.9-1.3-3.9-3-6.1-5c0.3-0.4,0.6-0.7,0.9-1.1l-3-0.9
		C249.9,6.3,247.8,8.6,245.8,10.3z M240.3,19.2v2.4h7.7c-0.8,2.1-1.7,4.3-2.8,6.6c-1.3,0.1-2.6,0.1-3.8,0.2l0.5,3
		c6.6-0.7,12.7-1.5,18.3-2.5c0.7,0.9,1.3,1.8,2,2.8l2.5-1.7c-1.7-2.5-3.8-5-6.5-7.6l-2.1,1.8c0.9,0.9,1.7,1.7,2.4,2.7
		c-3.4,0.5-6.8,0.8-10.2,1.1l3.2-6.4h14.4v-2.4H240.3z"/>
	<path class="st0" d="M276.6,3.9h2.9v4.9h2.9l0.5-0.1l1.7,1.8c-1.4,2.2-2.8,4.1-4.4,5.9c1.3,1.8,2.7,3.2,4.4,4.2l-2.1,2.2
		c-1-0.8-2-1.8-3-3.2v11.7h-2.9V20.2c-1.1,1-2.2,2-3.3,2.8c-0.4-1-0.9-1.8-1.6-2.5c3.4-2.4,6.5-5.4,9.2-9.2h-8V8.8h3.8V3.9z
		 M299.2,13.5V16h-6.5v11.7h7.3v2.6h-18.4v-2.6h8V16h-6v-2.5h6V3.9h3.1v9.6H299.2z"/>
	<path class="st1" d="M17.6,1.2c8.6,0,15.6,6.6,16.3,15h1.2C34.4,7.1,26.8,0,17.6,0C8.3,0,0.7,7.1,0,16.2h1.2
		C1.9,7.8,9,1.2,17.6,1.2z"/>
	<path class="st1" d="M33.9,18.8c-0.4,6.1-4.3,11.5-10,13.9c-0.2-0.6-0.6-1.6-0.8-2.2c4.7-2,8.1-6.5,8.4-11.9h-1
		c-0.5,6.6-5.9,11.8-12.5,12.1v-2.1c5.4-0.3,9.8-4.5,10.3-9.9h-0.7c-0.5,5-4.6,8.9-9.6,9.2v-9.2H17v9.2c-5-0.3-9.1-4.2-9.6-9.2H6.6
		c0.5,5.4,4.9,9.6,10.3,9.9v2.1C10.4,30.4,5,25.2,4.5,18.6h-1c0.4,5.3,3.7,9.8,8.3,11.8C11.6,31,11.3,32,11,32.6
		c-5.7-2.5-9.4-7.7-9.8-13.8H0C0.4,25.6,4.7,31.5,11.2,34l0.6,0.2l1.3-3.3c1.4,0.5,3,0.8,4.6,0.8c1.6,0,3.1-0.3,4.5-0.7l1.3,3.3
		l0.6-0.2c6.4-2.4,10.8-8.5,11.3-15.3H33.9z"/>
	<path class="st1" d="M31.5,16.1c-0.8-7-6.8-12.5-14-12.5c-7.2,0-13.2,5.5-14,12.5h1c0.8-6.5,6.3-11.6,13-11.6
		c6.7,0,12.3,5.1,13,11.6H31.5z"/>
	<path class="st1" d="M17.6,6.6c-5.5,0-10.1,4.1-10.9,9.5h0.8c0.7-4.9,5-8.7,10.1-8.7c5.1,0,9.4,3.8,10.1,8.7h0.8
		C27.7,10.7,23.1,6.6,17.6,6.6z"/>
</g>
</svg>
